<svg width="50" height="44" viewBox="0 0 50 44" fill="none" xmlns="http://www.w3.org/2000/svg">
<path d="M45.0649 0.212457C44.3666 0.242834 43.7257 0.443683 43.1628 0.665582C42.6426 0.870416 40.7749 1.65544 37.8008 2.90289C34.8267 4.15033 30.8857 5.80428 26.6851 7.57102C18.2837 11.1045 8.84274 15.0792 4.00521 17.115C3.83908 17.1842 3.16441 17.3907 2.41927 17.9599C1.6724 18.5303 0.842773 19.7683 0.842773 21.1223C0.842773 22.2145 1.38801 23.3269 2.04639 23.9638C2.70477 24.6006 3.37202 24.8984 3.92969 25.1202V25.1154C5.81475 25.8665 11.4442 28.1191 12.7845 28.6555C13.2599 30.0802 15.3009 36.1795 15.7865 37.7133H15.7817C16.1249 38.7989 16.4594 39.5063 16.924 40.0969C17.1563 40.3922 17.4335 40.6597 17.7736 40.871C17.9041 40.952 18.0486 41.0149 18.1937 41.0739C18.2139 41.0825 18.2348 41.0847 18.255 41.0928L18.1984 41.0787C18.2405 41.0956 18.2782 41.1205 18.3211 41.1353C18.391 41.1594 18.4394 41.1586 18.5335 41.1778C18.8646 41.2796 19.1951 41.3477 19.5011 41.3477C20.8149 41.3477 21.6204 40.635 21.6204 40.635L21.6724 40.5972L27.3459 35.7969L34.2938 42.2256C34.4207 42.4048 35.4149 43.7502 37.7158 43.7502C39.0888 43.7502 40.1743 43.0706 40.8688 42.3578C41.5633 41.645 41.9959 40.9156 42.1904 39.927L42.1951 39.9223C42.3503 39.1243 49.0015 5.72548 49.0015 5.72548L48.9873 5.78212C49.1943 4.85812 49.2554 3.96455 49.0109 3.05393C48.7664 2.14331 48.1064 1.25464 47.3117 0.788303C46.517 0.321962 45.7633 0.182078 45.0649 0.212457ZM44.1115 5.50364C43.8486 6.82321 37.8905 36.7561 37.5223 38.6337L27.4875 29.3493L20.7048 35.0842L22.5833 27.7398C22.5833 27.7398 35.5428 14.6218 36.3234 13.8581C36.9517 13.2467 37.0833 13.0324 37.0833 12.8197C37.0833 12.537 36.9378 12.3336 36.6019 12.3336C36.2998 12.3336 35.8895 12.623 35.672 12.7584C32.9082 14.4814 21.1364 21.1899 15.3475 24.483C14.9991 24.3433 9.76871 22.243 6.95052 21.1176C11.9633 19.0078 20.5561 15.3926 28.5589 12.0267C32.7589 10.2603 36.6987 8.60487 39.6699 7.35862C42.178 6.30662 43.4864 5.76192 44.1115 5.50364ZM37.4515 38.9782H37.4562L37.4515 38.9924C37.4546 38.9768 37.4492 38.9905 37.4515 38.9782Z" fill="#FF4747"/>
</svg>
