<svg width="50" height="50" viewBox="0 0 50 50" fill="none" xmlns="http://www.w3.org/2000/svg">
<path d="M24.9997 0.833496C11.6524 0.833496 0.833008 11.6529 0.833008 25.0002C0.833008 38.3474 11.6524 49.1668 24.9997 49.1668C38.3469 49.1668 49.1663 38.3474 49.1663 25.0002C49.1663 11.6529 38.3469 0.833496 24.9997 0.833496ZM38.3276 34.6668H35.1642C33.9655 34.6668 33.5861 33.4802 31.4957 31.0418C29.6832 28.9272 28.7455 28.6252 28.2839 28.6252C27.6363 28.6252 27.4163 28.7847 27.4163 29.7537V33.3449C27.4163 34.1497 27.2085 34.6668 25.1809 34.6668C21.8338 34.6668 18.0518 32.4 15.1832 28.4729C11.2247 23.0572 10.4997 18.3471 10.4997 17.4771C10.4997 16.9937 10.6519 16.5418 11.5751 16.5418H14.7675C15.5674 16.5418 15.8743 16.8971 16.1813 17.8323C17.5998 22.5835 19.7144 26.2085 20.7898 26.2085C21.1886 26.2085 21.3747 26.0152 21.3747 24.9518V20.5728C21.2514 18.3157 20.1663 18.1223 20.1663 17.3152C20.1663 16.9261 20.4225 16.5418 20.9155 16.5418H26.5318C27.2085 16.5418 27.4163 16.9285 27.4163 17.7671V24.0335C27.4163 24.7416 27.9577 25.0002 28.1703 25.0002C28.5691 25.0002 28.9437 25.0195 29.6808 24.2437C31.9524 21.5661 33.9244 17.5085 33.9244 17.5085C34.1419 17.0252 34.5093 16.5418 35.3092 16.5418H38.4726C39.1807 16.5418 39.4803 16.8584 39.4997 17.2982C39.5069 17.4505 39.4803 17.6197 39.4248 17.8009C39.026 19.7342 34.937 25.4762 34.9684 25.4762C34.7944 25.7735 34.6784 25.9862 34.6663 26.2109C34.6543 26.4236 34.7413 26.6459 34.9684 26.9601C35.3043 27.4434 36.039 28.3327 36.7809 29.2317C38.1222 30.8533 39.1976 32.5547 39.432 33.2507C39.4828 33.4392 39.5045 33.6107 39.4997 33.763C39.4828 34.3575 39.0598 34.6668 38.3276 34.6668Z" fill="#FF4747"/>
</svg>
