<svg width="58" height="58" viewBox="0 0 58 58" fill="none" xmlns="http://www.w3.org/2000/svg">
<path d="M51.8923 13.7382C51.2828 11.4807 49.4861 9.701 47.2071 9.09725C43.0731 8 26.5 8 26.5 8C26.5 8 9.9269 8 5.7929 9.09725C3.5139 9.701 1.7172 11.4807 1.1077 13.7382C-7.89762e-08 17.8332 0 29 0 29C0 29 -7.89762e-08 40.1667 1.1077 44.2617C1.7172 46.5192 3.5139 48.299 5.7929 48.9028C9.9269 50 26.5 50 26.5 50C26.5 50 43.0731 50 47.2071 48.9028C49.4887 48.299 51.2828 46.5192 51.8923 44.2617C53 40.1667 53 29 53 29C53 29 53 17.8332 51.8923 13.7382ZM21.2 38.093V19.907L37.1 29L21.2 38.093Z" fill="#FF4747"/>
</svg>
